<svg width="86" height="26" viewBox="0 0 86 26" fill="none" xmlns="http://www.w3.org/2000/svg">
<g clip-path="url(#clip0_1_766)">
<path fill-rule="evenodd" clip-rule="evenodd" d="M53.3527 20.3329C48.3551 24.0284 41.1114 26.0001 34.8747 26.0001C26.1298 26.0001 18.2572 22.7553 12.3012 17.3585C11.8333 16.9341 12.2525 16.3557 12.8141 16.6862C19.2417 20.4381 27.1892 22.6952 35.3988 22.6952C40.9355 22.6952 47.0262 21.546 52.6265 19.1612C53.4725 18.8006 54.1801 19.717 53.3527 20.3329Z" fill="#FF9900"/>
<path fill-rule="evenodd" clip-rule="evenodd" d="M55.4303 17.948C54.7939 17.1293 51.2076 17.5612 49.5979 17.7527C49.1075 17.8128 49.0327 17.3847 49.4744 17.0767C52.3307 15.06 57.0176 15.6421 57.5641 16.3181C58.1107 16.9979 57.4219 21.7111 54.7378 23.9607C54.326 24.3062 53.9329 24.1222 54.1164 23.664C54.7191 22.1543 56.0705 18.7705 55.4303 17.948Z" fill="#FF9900"/>
<path fill-rule="evenodd" clip-rule="evenodd" d="M49.7103 2.83946V0.879039C49.7103 0.582347 49.9349 0.383301 50.2044 0.383301H58.9531C59.2338 0.383301 59.4584 0.586103 59.4584 0.879039V2.55779C59.4547 2.83946 59.2188 3.20751 58.7996 3.78962L54.2662 10.283C55.9507 10.2417 57.7289 10.4934 59.2563 11.3571C59.6007 11.5524 59.6943 11.8379 59.7205 12.1195V14.2114C59.7205 14.4968 59.406 14.8311 59.0766 14.6583C56.385 13.2425 52.8099 13.0885 49.8338 14.6733C49.5306 14.8386 49.2124 14.5081 49.2124 14.2227V12.236C49.2124 11.9167 49.2161 11.3722 49.5343 10.8877L54.7865 3.33144H50.2157C49.9349 3.33144 49.7103 3.1324 49.7103 2.83946Z" fill="black"/>
<path fill-rule="evenodd" clip-rule="evenodd" d="M17.7967 15.0711H15.1351C14.8805 15.0523 14.6784 14.8608 14.6597 14.6167V0.912513C14.6597 0.638355 14.888 0.420529 15.1725 0.420529H17.6545C17.9128 0.431788 18.1187 0.630841 18.1374 0.87871V2.67013H18.1861C18.8337 0.9388 20.0503 0.131348 21.69 0.131348C23.3559 0.131348 24.3966 0.9388 25.1453 2.67013C25.7892 0.9388 27.2529 0.131348 28.8214 0.131348C29.937 0.131348 31.1574 0.593285 31.9024 1.62983C32.7447 2.7828 32.5725 4.45779 32.5725 5.92623L32.5687 14.5754C32.5687 14.8495 32.3404 15.0711 32.0558 15.0711H29.3979C29.1322 15.0523 28.9188 14.8382 28.9188 14.5754V7.31204C28.9188 6.73368 28.9712 5.29153 28.8439 4.74321C28.6455 3.8231 28.0503 3.56396 27.2791 3.56396C26.6352 3.56396 25.9614 3.99585 25.6881 4.68688C25.4148 5.37791 25.441 6.53463 25.441 7.31204V14.5754C25.441 14.8495 25.2127 15.0711 24.9282 15.0711H22.2703C22.0007 15.0523 21.7911 14.8382 21.7911 14.5754L21.7874 7.31204C21.7874 5.78351 22.0382 3.53391 20.1477 3.53391C18.2347 3.53391 18.3096 5.72718 18.3096 7.31204V14.5754C18.3096 14.8495 18.0813 15.0711 17.7967 15.0711" fill="black"/>
<path fill-rule="evenodd" clip-rule="evenodd" d="M66.9904 0.131348C70.9398 0.131348 73.0773 3.53391 73.0773 7.86036C73.0773 12.0403 70.7152 15.3565 66.9904 15.3565C63.1121 15.3565 61.0007 11.954 61.0007 7.71389C61.0007 3.44753 63.1383 0.131348 66.9904 0.131348ZM67.0128 2.92927C65.0512 2.92927 64.9277 5.61076 64.9277 7.282C64.9277 8.95699 64.9015 12.5323 66.9904 12.5323C69.0531 12.5323 69.1504 9.64802 69.1504 7.8904C69.1504 6.73368 69.1017 5.35162 68.7536 4.25499C68.4541 3.30107 67.8589 2.92927 67.0128 2.92927Z" fill="black"/>
<path fill-rule="evenodd" clip-rule="evenodd" d="M78.1985 15.0711H75.5481C75.2823 15.0523 75.0689 14.8382 75.0689 14.5754L75.0652 0.867444C75.0876 0.615819 75.3085 0.420529 75.578 0.420529H78.045C78.2771 0.431788 78.468 0.589531 78.5205 0.8036V2.89922H78.5691C79.3141 1.02518 80.3585 0.131348 82.1966 0.131348C83.3908 0.131348 84.555 0.563241 85.3037 1.74625C86 2.84289 86 4.68688 86 6.0126V14.6392C85.9701 14.8796 85.7492 15.0711 85.4872 15.0711H82.818C82.5747 15.0523 82.3725 14.872 82.3463 14.6392V7.19562C82.3463 5.69714 82.5185 3.50387 80.6805 3.50387C80.0328 3.50387 79.4376 3.93952 79.1419 4.6005C78.7675 5.438 78.7189 6.27174 78.7189 7.19562V14.5754C78.7151 14.8495 78.483 15.0711 78.1985 15.0711" fill="black"/>
<path fill-rule="evenodd" clip-rule="evenodd" d="M42.7361 8.5252C42.7361 9.5655 42.7623 10.433 42.2382 11.3569C41.8152 12.108 41.1413 12.57 40.3964 12.57C39.3744 12.57 38.7754 11.7888 38.7754 10.6358C38.7754 8.35996 40.8081 7.94684 42.7361 7.94684V8.5252ZM45.4202 15.0336C45.2442 15.1914 44.9897 15.2027 44.7913 15.0975C43.9078 14.3614 43.7468 14.0196 43.2639 13.3173C41.8039 14.8121 40.767 15.259 38.8765 15.259C36.6341 15.259 34.8934 13.8732 34.8934 11.0978C34.8934 8.93081 36.0614 7.45486 37.731 6.73378C39.176 6.09533 41.1937 5.98267 42.7361 5.80615V5.46064C42.7361 4.82594 42.7847 4.07482 42.4104 3.52651C42.0884 3.03452 41.467 2.83172 40.9167 2.83172C39.9022 2.83172 39 3.35375 38.7792 4.43536C38.7342 4.67572 38.5583 4.91232 38.315 4.92359L35.7357 4.64567C35.5185 4.59685 35.2752 4.42034 35.3389 4.08609C35.9303 0.946413 38.7604 0 41.2911 0C42.5863 0 44.2784 0.345515 45.3004 1.32948C46.5956 2.54254 46.4721 4.1612 46.4721 5.92258V10.0838C46.4721 11.3344 46.9887 11.8827 47.4754 12.5587C47.6438 12.7991 47.6813 13.0882 47.4641 13.2685C46.9213 13.7229 45.9555 14.568 45.4239 15.0412L45.4202 15.0336" fill="black"/>
<path fill-rule="evenodd" clip-rule="evenodd" d="M7.84268 8.5252C7.84268 9.5655 7.86889 10.433 7.3448 11.3569C6.92177 12.108 6.25168 12.57 5.50298 12.57C4.481 12.57 3.88578 11.7888 3.88578 10.6358C3.88578 8.35996 5.91851 7.94684 7.84268 7.94684V8.5252ZM10.5268 15.0336C10.3508 15.1914 10.0963 15.2027 9.89788 15.0975C9.01441 14.3614 8.85718 14.0196 8.37052 13.3173C6.91054 14.8121 5.87733 15.259 3.98311 15.259C1.74448 15.259 0 13.8732 0 11.0978C0 8.93081 1.17172 7.45486 2.83759 6.73378C4.28259 6.09533 6.30035 5.98267 7.84268 5.80615V5.46064C7.84268 4.82594 7.89135 4.07482 7.52074 3.52651C7.19505 3.03452 6.57363 2.83172 6.02707 2.83172C5.01258 2.83172 4.10665 3.35375 3.88578 4.43536C3.84085 4.67572 3.66491 4.91232 3.42532 4.92359L0.842293 4.64567C0.625168 4.59685 0.385582 4.42034 0.445479 4.08609C1.0407 0.946413 3.86706 0 6.39768 0C7.69294 0 9.38501 0.345515 10.407 1.32948C11.7023 2.54254 11.5787 4.1612 11.5787 5.92258V10.0838C11.5787 11.3344 12.0953 11.8827 12.582 12.5587C12.7542 12.7991 12.7916 13.0882 12.5745 13.2685C12.0317 13.7229 11.0659 14.568 10.5343 15.0412L10.5268 15.0336" fill="black"/>
</g>
<defs>
<clipPath id="clip0_1_766">
<rect width="86" height="26" fill="white"/>
</clipPath>
</defs>
</svg>
