<svg width="95" height="42" viewBox="0 0 95 42" fill="none" xmlns="http://www.w3.org/2000/svg">
<g clip-path="url(#clip0_1_820)">
<path d="M16.4069 14.4023C15.8067 13.2759 15.0864 12.4713 14.166 11.908C13.2456 11.3448 12.1651 11.0632 10.9246 11.0632C9.28391 11.0632 7.88332 11.6667 6.76285 12.8736C5.64238 14.0805 5.08214 15.6092 5.08214 17.4195C5.08214 19.2299 5.64238 20.7184 6.80286 21.9253C7.96335 23.1322 9.36394 23.6954 11.1247 23.6954C12.4452 23.6954 13.5657 23.4138 14.4461 22.8506C15.3265 22.2874 16.0067 21.4023 16.4069 20.2759H21.6091C20.9688 22.8908 19.7283 24.9023 17.8875 26.3908C16.0468 27.8793 13.8058 28.6034 11.1247 28.6034C9.56403 28.6034 8.12342 28.3218 6.80286 27.7586C5.48231 27.1954 4.2818 26.3908 3.20135 25.2644C2.20093 24.2184 1.44061 23.0517 0.880371 21.6437C0.280118 20.3161 0 18.908 0 17.5C0 16.0115 0.240101 14.6034 0.76032 13.3161C1.28054 12.0287 2.04086 10.8621 3.04128 9.81609C4.16175 8.64942 5.36226 7.76437 6.76285 7.16092C8.12342 6.55747 9.64406 6.23563 11.2047 6.23563C13.7658 6.23563 16.0067 6.95977 17.9275 8.44828C19.8083 9.93678 21.0489 11.908 21.6491 14.4023H16.4069ZM65.3475 8.56896V0H70.1896V28.0805H65.3475V26.3506C64.3871 27.1149 63.3467 27.6782 62.3062 28.0805C61.2258 28.4425 60.0653 28.6437 58.8248 28.6437C57.5042 28.6437 56.2637 28.4425 55.0632 28C53.9027 27.5575 52.8222 26.954 51.9019 26.1494C50.6213 25.023 49.6609 23.7356 48.9806 22.2069C48.3003 20.6782 47.9402 19.1092 47.9402 17.4195C47.9402 15.8506 48.2603 14.3621 48.9006 12.9138C49.5409 11.4655 50.4212 10.2184 51.5817 9.17241C52.5421 8.24713 53.6226 7.56322 54.8631 7.08046C56.1036 6.5977 57.4242 6.35632 58.8248 6.35632C60.1853 6.35632 61.3858 6.51724 62.4263 6.87931C63.4267 7.24138 64.4271 7.8046 65.3475 8.56896ZM65.1474 17.5402C65.1474 15.7299 64.5872 14.2011 63.4267 12.9943C62.2662 11.7874 60.8656 11.1839 59.1449 11.1839C57.4642 11.1839 56.0236 11.7874 54.8231 13.0345C53.6226 14.2816 53.0223 15.7299 53.0223 17.4598C53.0223 19.2299 53.6226 20.7184 54.8231 21.9253C56.0236 23.1322 57.5442 23.6954 59.385 23.6954C60.9857 23.6954 62.3463 23.092 63.4667 21.8851C64.5472 20.7586 65.1474 19.2701 65.1474 17.5402ZM78.0729 19.0287C78.2329 20.5575 78.8332 21.7644 79.8736 22.6494C80.9141 23.5345 82.2746 23.977 83.9153 23.977C85.0358 23.977 85.9962 23.7356 86.8766 23.2931C87.757 22.8103 88.4372 22.1667 88.9575 21.3621H94.2397C93.3593 23.6552 91.9987 25.4655 90.238 26.7529C88.4372 28.0402 86.3964 28.6839 84.0354 28.6839C82.4747 28.6839 81.0341 28.4023 79.7136 27.8391C78.393 27.2759 77.1925 26.4713 76.1521 25.3448C75.1516 24.2988 74.3913 23.092 73.8311 21.7241C73.2709 20.3563 72.9907 18.9483 72.9907 17.5402C72.9907 16.0517 73.2308 14.6839 73.7511 13.3563C74.2713 12.069 74.9916 10.8621 75.992 9.85632C77.0724 8.72989 78.273 7.84483 79.6335 7.20115C80.9941 6.5977 82.3947 6.27586 83.8353 6.27586C85.6761 6.27586 87.3568 6.67816 88.9575 7.52299C90.5581 8.36782 91.8787 9.53448 92.9992 11.0632C93.6794 11.9885 94.1596 12.9943 94.5198 14.1207C94.8399 15.2471 95 16.5345 95 18.023C95 18.1437 95 18.3046 95 18.546C95 18.7874 95 18.9483 95 19.069L78.0729 19.0287ZM89.6778 15.1264C89.2776 13.7184 88.5573 12.6322 87.5569 11.908C86.5564 11.1839 85.3159 10.7816 83.7953 10.7816C82.5147 10.7816 81.3142 11.1839 80.2738 11.9885C79.2334 12.7931 78.5531 13.8391 78.1929 15.1264H89.6778Z" fill="#4A4A4F"/>
<path d="M23.77 17.3795C23.77 15.891 24.0501 14.483 24.5704 13.1151C25.1306 11.7876 25.8909 10.5807 26.9314 9.53469C27.9718 8.44848 29.1723 7.64389 30.5329 7.08067C31.8534 6.51745 33.254 6.23584 34.6946 6.23584C36.2153 6.23584 37.6158 6.47722 38.8964 7.00021C40.1769 7.5232 41.3774 8.24733 42.4579 9.29331C43.5784 10.3795 44.4187 11.5864 45.019 12.9945C45.6192 14.4025 45.9394 15.8106 45.9394 17.2991C45.9394 18.9083 45.6993 20.3968 45.139 21.7243C44.6188 23.0519 43.8185 24.2588 42.778 25.345C41.7376 26.4312 40.5371 27.2761 39.1765 27.8393C37.8159 28.4025 36.3753 28.6841 34.8147 28.6841C33.214 28.6841 31.7734 28.4025 30.4928 27.8393C29.1723 27.2761 28.0118 26.4312 26.9314 25.3048C25.8909 24.1784 25.1306 22.9715 24.6104 21.6439C24.0101 20.2358 23.77 18.868 23.77 17.3795ZM28.8121 17.3393C28.8121 19.3106 29.3324 20.8795 30.4128 22.006C31.4933 23.1726 32.9739 23.7358 34.8147 23.7358C36.6154 23.7358 38.056 23.1324 39.1365 21.9657C40.2169 20.7991 40.7372 19.2301 40.7372 17.2186C40.7372 15.4485 40.1769 13.96 39.0565 12.8335C37.936 11.7071 36.4954 11.1037 34.8147 11.1037C33.0539 11.1037 31.6133 11.6669 30.4928 12.8335C29.3724 14.0002 28.8121 15.4887 28.8121 17.3393ZM47.9002 33.7129V32.6669H48.9406V33.7129H47.9002ZM47.9402 41.9197V35.5232H48.8606V41.9197H47.9402ZM55.5434 41.9197V37.9772C55.5434 36.8508 54.9431 36.2876 53.9827 36.2876C53.0223 36.2876 52.4221 36.8508 52.4221 37.9772V41.9197H51.5017V35.5232H52.4221V36.2071C52.8623 35.6841 53.5025 35.4427 54.2228 35.4427C54.9031 35.4427 55.4634 35.6439 55.8635 36.0462C56.3037 36.4887 56.5038 37.0922 56.5038 37.8163V41.9197H55.5434ZM60.9857 42.0002C59.9052 42.0002 59.0649 41.7588 58.3846 41.0749L59.0249 40.4312C59.5451 40.9542 60.2254 41.1554 60.9857 41.1554C62.0261 41.1554 62.6664 40.7933 62.6664 40.0289C62.6664 39.4657 62.3463 39.1439 61.626 39.1037L60.5855 39.0232C59.345 38.9025 58.6647 38.3795 58.6647 37.2933C58.6647 36.1266 59.6251 35.4427 60.9857 35.4427C61.9061 35.4427 62.7064 35.6841 63.2667 36.1266L62.6664 36.7301C62.2262 36.368 61.626 36.2071 60.9857 36.2071C60.0653 36.2071 59.5451 36.6094 59.5451 37.2531C59.5451 37.8163 59.8652 38.1381 60.6656 38.1784L61.706 38.2588C62.8265 38.3795 63.5868 38.7818 63.5868 39.9887C63.5868 41.2761 62.5463 42.0002 60.9857 42.0002ZM67.3083 41.9197C66.2279 41.9197 65.6677 41.1554 65.6677 40.1899V36.2473H64.8673V35.5232H65.6677V33.5117H66.588V35.5232H67.9486V36.2473H66.588V40.1496C66.588 40.7129 66.8682 41.0749 67.4684 41.0749H67.9486V41.8795L67.3083 41.9197ZM70.0295 33.7129V32.6669H71.0699V33.7129H70.0295ZM70.0695 41.9197V35.5232H70.9899V41.9197H70.0695ZM75.3918 41.9197C74.3113 41.9197 73.7511 41.1554 73.7511 40.1899V36.2473H72.9507V35.5232H73.7511V33.5117H74.6715V35.5232H76.032V36.2473H74.6715V40.1496C74.6715 40.7129 74.9516 41.0749 75.5518 41.0749H76.032V41.8795L75.3918 41.9197ZM82.1546 41.9197V41.1956C81.7144 41.7186 81.0741 42.0002 80.3538 42.0002C79.6736 42.0002 79.1133 41.7991 78.7132 41.3968C78.273 40.9542 78.0729 40.3508 78.0729 39.5864V35.5232H78.9933V39.4657C78.9933 40.5922 79.5935 41.1554 80.5539 41.1554C81.5143 41.1554 82.1546 40.5922 82.1546 39.4657V35.5232H83.075V41.9197H82.1546ZM87.4368 41.9197C86.3564 41.9197 85.7961 41.1554 85.7961 40.1899V36.2473H84.9958V35.5232H85.7961V33.5117H86.7165V35.5232H88.0771V36.2473H86.7165V40.1496C86.7165 40.7129 86.9966 41.0749 87.5969 41.0749H88.0771V41.8795L87.4368 41.9197ZM90.6782 38.983C90.6782 40.391 91.3185 41.1956 92.559 41.1956C93.2793 41.1956 93.7195 40.9542 94.2397 40.4715L94.88 41.0347C94.2397 41.6784 93.6394 42.0404 92.559 42.0404C90.8783 42.0404 89.7978 41.0347 89.7978 38.7818C89.7978 36.7301 90.7982 35.5232 92.3989 35.5232C94.0396 35.5232 95 36.7301 95 38.6209V39.0634L90.6782 38.983ZM93.8395 37.2129C93.5994 36.6496 93.0392 36.2473 92.3589 36.2473C91.6786 36.2473 91.1184 36.6094 90.8783 37.2129C90.7182 37.5749 90.7182 37.7761 90.6782 38.2588H94.0396C93.9996 37.7761 93.9996 37.5749 93.8395 37.2129Z" fill="#E84610"/>
</g>
<defs>
<clipPath id="clip0_1_820">
<rect width="95" height="42" fill="white"/>
</clipPath>
</defs>
</svg>
