<svg width="95" height="18" viewBox="0 0 95 18" fill="none" xmlns="http://www.w3.org/2000/svg">
<g clip-path="url(#clip0_1_777)">
<path d="M7.67265 3.00172C6.55807 3.00172 6.23583 3.48322 6.23583 4.54522V6.30697H9.2088L8.91081 9.15322H6.23698V17.791H2.66918V9.15322H0.265625V6.30697H2.66918V4.5936C2.66918 1.7226 3.85768 0.2061 7.17369 0.2061C7.86857 0.204512 8.56289 0.244714 9.25269 0.326475V3.0051L7.67265 3.00172Z" fill="#4267B2"/>
<path d="M9.45599 11.6865C9.45599 8.47802 11.0164 6.06152 14.2862 6.06152C16.0695 6.06152 17.1587 6.95477 17.6796 8.06402V6.30677H21.0973V17.7908H17.6796V16.0538C17.1841 17.1641 16.0695 18.0326 14.2862 18.0326C11.0164 18.0326 9.45599 15.6195 9.45599 12.4076V11.6865ZM13.0226 12.4594C13.0226 14.1716 13.666 15.3056 15.3257 15.3056C16.7879 15.3056 17.5306 14.2684 17.5306 12.6281V11.475C17.5306 9.83477 16.7879 8.79752 15.3257 8.79752C13.666 8.79752 13.0226 9.93152 13.0226 11.6438V12.4594Z" fill="#4267B2"/>
<path d="M28.5285 6.06494C29.9145 6.06494 31.2278 6.35519 31.9462 6.83669L31.1539 9.29819C30.4107 8.9535 29.5988 8.77222 28.7757 8.76719C26.8434 8.76719 26.0037 9.85282 26.0037 11.7113V12.3863C26.0037 14.2448 26.8457 15.3304 28.7757 15.3304C29.5988 15.3254 30.4107 15.1441 31.1539 14.7994L31.9462 17.2598C31.2278 17.7424 29.9157 18.0327 28.5285 18.0327C24.3417 18.0327 22.4348 15.8367 22.4348 12.3143V11.7833C22.4348 8.26094 24.3417 6.06494 28.5285 6.06494Z" fill="#4267B2"/>
<path d="M32.4163 12.4877V11.4752C32.4163 8.21832 34.3232 6.0752 38.2132 6.0752C41.8792 6.0752 43.4893 8.24645 43.4893 11.4313V13.2651H35.9817C36.0568 14.8333 36.7752 15.5331 38.7538 15.5331C40.0924 15.5331 41.5038 15.2676 42.5445 14.8333L43.197 17.2127C42.2557 17.6964 40.3234 18.0576 38.6152 18.0576C34.1002 18.0564 32.4163 15.8627 32.4163 12.4877ZM35.9829 10.9914H40.2934V10.7023C40.2934 9.44795 39.7736 8.45232 38.2144 8.45232C36.6031 8.45345 35.9829 9.44345 35.9829 10.9869V10.9914Z" fill="#4267B2"/>
<path d="M56.7106 12.4111C56.7106 15.6196 55.1259 18.0361 51.8596 18.0361C50.0763 18.0361 48.8381 17.1676 48.3426 16.0572V17.7942H44.9746V0.540098L48.5413 0.225098V7.8976C49.061 6.8851 50.201 6.06385 51.8607 6.06385C55.1306 6.06385 56.7118 8.47697 56.7118 11.6888L56.7106 12.4111ZM53.144 11.6146C53.144 9.99797 52.5006 8.79197 50.7912 8.79197C49.329 8.79197 48.5366 9.80447 48.5366 11.4458V12.6518C48.5366 14.2921 49.329 15.3057 50.7912 15.3057C52.5006 15.3057 53.144 14.0997 53.144 12.4831V11.6146Z" fill="#4267B2"/>
<path d="M57.9037 12.3379V11.7597C57.9037 8.45332 59.836 6.06494 63.7746 6.06494C67.7131 6.06494 69.6466 8.45332 69.6466 11.7597V12.3379C69.6466 15.6432 67.7143 18.0327 63.7757 18.0327C59.8372 18.0327 57.9037 15.6432 57.9037 12.3379ZM66.0788 11.5178C66.0788 9.99794 65.4343 8.79194 63.7688 8.79194C62.1033 8.79194 61.4646 9.99794 61.4646 11.5178V12.5798C61.4646 14.0997 62.1091 15.3057 63.7688 15.3057C65.4285 15.3057 66.0788 14.0997 66.0788 12.5798V11.5178Z" fill="#4267B2"/>
<path d="M70.8328 12.3379V11.7597C70.8328 8.45332 72.7651 6.06494 76.7036 6.06494C80.6422 6.06494 82.5745 8.45332 82.5745 11.7597V12.3379C82.5745 15.6432 80.6422 18.0327 76.7036 18.0327C72.7651 18.0327 70.8328 15.6432 70.8328 12.3379ZM79.0079 11.5178C79.0079 9.99794 78.3634 8.79194 76.7036 8.79194C75.0439 8.79194 74.4006 9.99794 74.4006 11.5178V12.5798C74.4006 14.0997 75.0439 15.3057 76.7036 15.3057C78.3634 15.3057 79.0079 14.0997 79.0079 12.5798V11.5178Z" fill="#4267B2"/>
<path d="M87.4787 11.7833L90.9957 6.30685H94.7852L91.095 11.9768L94.9342 17.7908H91.1447L87.4787 12.1658V17.7908H83.9109V0.540098L87.4787 0.225098V11.7833Z" fill="#4267B2"/>
</g>
<defs>
<clipPath id="clip0_1_777">
<rect width="95" height="18" fill="white"/>
</clipPath>
</defs>
</svg>
