<svg width="77" height="24" viewBox="0 0 77 24" fill="none" xmlns="http://www.w3.org/2000/svg">
<path d="M25.6311 13.3614L24.2768 9.18519C24.2775 9.18707 24.2777 9.18902 24.2783 9.1909C24.2776 9.18872 24.2772 9.18654 24.2766 9.18437L24.2766 9.18399V9.18384L21.588 0.896391C21.441 0.459786 21.0363 0.166763 20.5724 0.170444C20.1071 0.172849 19.7135 0.460161 19.5696 0.902777L17.0177 8.76917H8.96557L6.4089 0.902326C6.26512 0.460162 5.87154 0.172849 5.40629 0.170444H5.40067C4.94255 0.170444 4.53711 0.461664 4.38846 0.903153L1.70737 9.18316L1.707 9.18422V9.18444C1.70632 9.18655 1.70602 9.18865 1.70535 9.19075C1.70595 9.18887 1.70617 9.18692 1.70677 9.18504L0.347507 13.3615C0.247474 13.6677 0.247051 13.9977 0.346299 14.3042C0.445547 14.6106 0.639346 14.8776 0.899797 15.0667L12.6363 23.6049C12.638 23.6061 12.64 23.6069 12.6417 23.6082C12.6467 23.6118 12.6516 23.6155 12.6567 23.6188C12.6519 23.6156 12.6474 23.6121 12.6427 23.6088L12.6426 23.6087C12.6433 23.6093 12.6442 23.6097 12.6451 23.6102L12.6471 23.6114L12.6474 23.6116C12.6655 23.6243 12.6844 23.6358 12.7039 23.6464C12.7066 23.6479 12.709 23.6498 12.7117 23.6512L12.7118 23.6513C12.7135 23.6521 12.715 23.6532 12.7166 23.654C12.7179 23.6546 12.7193 23.655 12.7205 23.6556C12.7214 23.656 12.7223 23.6563 12.7232 23.6567C12.7254 23.6578 12.7278 23.6584 12.73 23.6596C12.7402 23.6644 12.7509 23.6684 12.7614 23.6727C12.7713 23.6768 12.7808 23.6815 12.7909 23.685L12.7921 23.6856C12.7938 23.6862 12.7953 23.687 12.797 23.6876C12.7991 23.6883 12.8011 23.6892 12.8032 23.6898L12.8057 23.6904C12.8083 23.6913 12.8112 23.6916 12.8138 23.6924L12.817 23.6931C12.8311 23.6974 12.8457 23.7005 12.8603 23.7037C12.866 23.705 12.8714 23.7068 12.8772 23.7079L12.8797 23.7085C12.8816 23.7089 12.8833 23.7095 12.8853 23.7098C12.8883 23.7104 12.8913 23.7113 12.8945 23.7118C12.897 23.7122 12.8995 23.712 12.902 23.7124L12.9033 23.7125H12.9036C12.9313 23.7164 12.9594 23.7192 12.988 23.7192H12.989C13.0176 23.7192 13.0457 23.7164 13.0735 23.7125H13.0738L13.0751 23.7124C13.0776 23.712 13.0802 23.7122 13.0827 23.7118C13.0858 23.7113 13.0888 23.7104 13.092 23.7098C13.0939 23.7095 13.0956 23.7089 13.0975 23.7085L13.0999 23.7079C13.1057 23.7068 13.1114 23.7049 13.1172 23.7037C13.1315 23.7005 13.1459 23.6974 13.16 23.6932L13.1629 23.6925C13.1657 23.6917 13.1685 23.6913 13.1713 23.6905C13.1721 23.6902 13.173 23.6901 13.1739 23.6899C13.176 23.6892 13.1781 23.6883 13.1802 23.6876C13.1819 23.687 13.1834 23.6862 13.185 23.6856L13.1863 23.685C13.197 23.6813 13.207 23.6763 13.2175 23.672C13.2271 23.668 13.237 23.6644 13.2465 23.6599C13.2488 23.6587 13.2513 23.6581 13.2536 23.6569L13.2564 23.6557C13.2577 23.6551 13.259 23.6548 13.2603 23.6541C13.262 23.6532 13.2637 23.6521 13.2653 23.6513L13.2654 23.6512C13.2682 23.6498 13.2707 23.6478 13.2734 23.6463C13.2928 23.6357 13.3116 23.6243 13.3296 23.6117C13.3311 23.6107 13.3327 23.61 13.3342 23.6089L13.3354 23.6082C13.3371 23.6069 13.3392 23.6061 13.3409 23.6048L25.079 15.0664C25.3394 14.8773 25.5331 14.6103 25.6323 14.3039C25.7315 13.9975 25.7311 13.6675 25.6311 13.3614ZM20.5797 1.67283L22.8818 8.76917H18.2777L20.5797 1.67283ZM22.4787 9.96914L21.5393 11.1742L14.6111 20.0625L17.8884 9.96907H22.4787V9.96914ZM12.4187 23.3049C12.4187 23.3048 12.4187 23.3048 12.4187 23.3049C12.4193 23.3067 12.4202 23.3083 12.4208 23.3102C12.4202 23.3083 12.4193 23.3067 12.4187 23.3049ZM11.3676 20.0631L3.50434 9.96914H8.09496L11.3676 20.0631ZM5.39902 1.67275L7.70528 8.76917H3.10116L5.39902 1.67275ZM1.60442 14.096C1.54899 14.0556 1.50778 13.9987 1.48671 13.9334C1.46563 13.8681 1.46578 13.7978 1.48713 13.7325L2.49754 10.6278L9.90116 20.1318L1.60442 14.096ZM12.6156 23.589C12.6133 23.5871 12.6111 23.5851 12.6088 23.5832L12.6074 23.5819C12.6029 23.5781 12.5985 23.5743 12.5941 23.5704C12.5855 23.563 12.5772 23.5553 12.5691 23.5474L12.5712 23.5491L12.574 23.5514C12.5912 23.5679 12.6093 23.5834 12.6282 23.5977L12.6288 23.5982C12.6297 23.5989 12.6304 23.5997 12.6313 23.6004C12.6261 23.5967 12.6207 23.593 12.6156 23.589ZM12.9889 21.1775L11.0631 15.2379L9.35487 9.96914H16.6281L12.9889 21.1775ZM13.383 23.5703C13.3785 23.5742 13.3741 23.5781 13.3696 23.5819L13.368 23.5833C13.3657 23.5852 13.3635 23.5872 13.3612 23.5891C13.3563 23.5931 13.3509 23.5967 13.3457 23.6005C13.3466 23.5998 13.3474 23.5989 13.3483 23.5983L13.3488 23.5979C13.3677 23.5836 13.3857 23.5683 13.4027 23.5518C13.4034 23.5511 13.4042 23.5506 13.4049 23.55C13.4058 23.5492 13.4068 23.5485 13.4076 23.5477C13.3996 23.5555 13.3914 23.563 13.383 23.5703ZM24.3744 14.0958L16.0789 20.1299L23.4849 10.6286L24.4912 13.7319C24.5127 13.7972 24.5129 13.8675 24.4919 13.9329C24.471 13.9983 24.4298 14.0553 24.3744 14.0958Z" fill="#231F20"/>
<path d="M54.0107 5.89111H52.3748L52.3823 18.1004H59.0083V16.5902H54.0182L54.0107 5.89111Z" fill="#231F20"/>
<path d="M65.3136 15.9578C64.9009 16.3861 64.218 16.8144 63.2875 16.8144C62.0419 16.8144 61.5391 16.1983 61.5391 15.3943C61.5391 14.1847 62.3796 13.6061 64.1655 13.6061C64.5032 13.6061 65.0435 13.6437 65.3211 13.6963V15.9578H65.3136ZM63.6177 8.55713C62.297 8.55713 61.0814 9.02296 60.1359 9.81187L60.7137 10.8187C61.3815 10.428 62.1995 10.0373 63.3776 10.0373C64.7208 10.0373 65.3136 10.7285 65.3136 11.8856V12.4791C65.051 12.4265 64.5107 12.389 64.1805 12.389C61.314 12.389 59.8582 13.3958 59.8582 15.4995C59.8582 17.3854 61.0138 18.3321 62.7623 18.3321C63.9404 18.3321 65.0735 17.7911 65.4637 16.912L65.7639 18.1067H66.9195V11.8555C66.912 9.87949 66.0565 8.55713 63.6177 8.55713Z" fill="#231F20"/>
<path d="M72.1978 16.8707C71.5825 16.8707 71.0422 16.7955 70.6369 16.6077V10.9651C71.1922 10.4993 71.8826 10.1612 72.7606 10.1612C74.3439 10.1612 74.9517 11.2807 74.9517 13.0914C74.9517 15.661 73.9687 16.8707 72.1978 16.8707ZM72.8881 8.56082C71.4249 8.56082 70.6369 9.5601 70.6369 9.5601V7.98228L70.6294 5.89355H69.0311L69.0386 17.8023C69.8415 18.1404 70.9371 18.3207 72.1302 18.3207C75.1844 18.3207 76.6551 16.3673 76.6551 12.9937C76.6476 10.3265 75.2894 8.56082 72.8881 8.56082Z" fill="#231F20"/>
<path d="M36.1994 7.21573C37.6477 7.21573 38.5857 7.69659 39.1935 8.18497L39.8989 6.96028C38.9459 6.11877 37.6552 5.66797 36.2745 5.66797C32.7926 5.66797 30.3539 7.79427 30.3539 12.0844C30.3539 16.5775 32.9877 18.3281 35.9968 18.3281C37.5051 18.3281 38.7883 17.975 39.6287 17.6218L39.5912 12.8208V11.3106H35.1264V12.8208H37.9778L38.0154 16.4648C37.6402 16.6526 36.9948 16.8029 36.1169 16.8029C33.7006 16.8029 32.0798 15.2776 32.0798 12.0694C32.0723 8.80107 33.7456 7.21573 36.1994 7.21573Z" fill="#231F20"/>
<path d="M47.7201 5.88965H46.1217L46.1292 7.94081V15.026C46.1292 17.002 46.9847 18.3244 49.4235 18.3244C49.7611 18.3244 50.0913 18.2943 50.4065 18.2342V16.7991C50.1739 16.8367 49.9262 16.8517 49.6636 16.8517C48.3204 16.8517 47.7276 16.1605 47.7276 15.0034V10.1197H50.4065V8.78232H47.7276L47.7201 5.88965Z" fill="#231F20"/>
<path d="M42.0569 18.1003H43.6552V8.78369H42.0569V18.1003Z" fill="#231F20"/>
<path d="M42.0569 7.49879H43.6552V5.89844H42.0569V7.49879Z" fill="#231F20"/>
</svg>
