<svg width="17" height="10" viewBox="0 0 17 10" fill="none" xmlns="http://www.w3.org/2000/svg">
<path d="M8.24243 2.91587C7.57406 3.10787 7.11787 3.25187 6.46011 3.44387C6.30097 3.49187 6.29036 3.50387 6.15245 3.32387C5.99331 3.11987 5.87661 2.98787 5.65382 2.86787C4.98545 2.49587 4.3383 2.60387 3.73359 3.04787C3.01217 3.57587 2.64085 4.35587 2.65146 5.32787C2.66207 6.28787 3.24557 7.07987 4.08368 7.21187C4.8051 7.31987 5.40981 7.03187 5.88722 6.41987C5.9827 6.28787 6.06757 6.14387 6.17366 5.97587C5.79174 5.97587 5.31433 5.97587 4.12612 5.97587C3.90333 5.97587 3.85028 5.81987 3.92455 5.61587C4.06247 5.24387 4.31708 4.61987 4.46561 4.30787C4.49744 4.23587 4.5717 4.11587 4.73083 4.11587C5.2719 4.11587 7.26639 4.11587 8.59252 4.11587C8.57131 4.43987 8.57131 4.76387 8.52887 5.08787C8.41217 5.95187 8.12573 6.74387 7.65893 7.43987C6.89508 8.57987 5.89783 9.28787 4.63535 9.47987C3.59567 9.63587 2.63024 9.40787 1.78152 8.68787C0.996453 8.01587 0.550874 7.12787 0.434174 6.02387C0.296257 4.71587 0.635746 3.53987 1.33594 2.50787C2.08918 1.39187 3.08643 0.683869 4.30647 0.431869C5.30372 0.227869 6.25854 0.359869 7.11787 1.01987C7.68015 1.43987 8.08329 2.01587 8.34852 2.71187C8.41217 2.81987 8.36974 2.87987 8.24243 2.91587Z" fill="#00ACD7"/>
<path d="M11.754 9.55208C10.7886 9.52808 9.90802 9.21608 9.16539 8.49608C8.53946 7.88408 8.14692 7.10408 8.01962 6.18008C7.82865 4.82408 8.15753 3.62408 8.87895 2.55608C9.65341 1.40408 10.587 0.804079 11.8495 0.552079C12.9316 0.336079 13.9501 0.456079 14.8731 1.16408C15.7112 1.81208 16.231 2.68808 16.3689 3.84008C16.5493 5.46008 16.1355 6.78008 15.1489 7.90808C14.4487 8.71208 13.5894 9.21608 12.6027 9.44408C12.3163 9.50408 12.0298 9.51608 11.754 9.55208ZM14.2789 4.70408C14.2683 4.54808 14.2683 4.42808 14.2471 4.30808C14.0562 3.12008 13.0907 2.44808 12.0829 2.71208C11.0962 2.96408 10.4597 3.67208 10.2263 4.80008C10.0353 5.73608 10.4385 6.68408 11.2023 7.06808C11.7858 7.35608 12.3693 7.32008 12.9316 6.99608C13.7697 6.50408 14.2259 5.73608 14.2789 4.70408Z" fill="#00ACD7"/>
</svg>
