<svg width="86" height="29" viewBox="0 0 86 29" fill="none" xmlns="http://www.w3.org/2000/svg">
<path d="M36.5974 14.8719C36.5974 18.8972 33.4388 21.8634 29.5625 21.8634C25.6862 21.8634 22.5276 18.8972 22.5276 14.8719C22.5276 10.8182 25.6862 7.88037 29.5625 7.88037C33.4388 7.88037 36.5974 10.8182 36.5974 14.8719ZM33.5179 14.8719C33.5179 12.3565 31.6872 10.6354 29.5625 10.6354C27.4378 10.6354 25.6071 12.3565 25.6071 14.8719C25.6071 17.3621 27.4378 19.1084 29.5625 19.1084C31.6872 19.1084 33.5179 17.359 33.5179 14.8719Z" fill="#EA4335"/>
<path d="M51.7739 14.8719C51.7739 18.8972 48.6153 21.8634 44.739 21.8634C40.8626 21.8634 37.704 18.8972 37.704 14.8719C37.704 10.8213 40.8626 7.88037 44.739 7.88037C48.6153 7.88037 51.7739 10.8182 51.7739 14.8719ZM48.6943 14.8719C48.6943 12.3565 46.8637 10.6354 44.739 10.6354C42.6143 10.6354 40.7836 12.3565 40.7836 14.8719C40.7836 17.3621 42.6143 19.1084 44.739 19.1084C46.8637 19.1084 48.6943 17.359 48.6943 14.8719Z" fill="#FBBC05"/>
<path d="M66.318 8.30276V20.8547C66.318 26.018 63.2637 28.1268 59.653 28.1268C56.2541 28.1268 54.2084 25.8604 53.4369 24.0069L56.1181 22.8942C56.5955 24.0321 57.7654 25.3749 59.6498 25.3749C61.9611 25.3749 63.3933 23.9533 63.3933 21.2771V20.2716H63.2859C62.5966 21.1195 61.2686 21.8603 59.5929 21.8603C56.0865 21.8603 52.8741 18.8153 52.8741 14.8971C52.8741 10.9506 56.0865 7.88037 59.5929 7.88037C61.2655 7.88037 62.5934 8.62113 63.2859 9.44385H63.3933V8.30591H66.318V8.30276ZM63.6115 14.8971C63.6115 12.4353 61.9642 10.6354 59.868 10.6354C57.7433 10.6354 55.9632 12.4353 55.9632 14.8971C55.9632 17.3337 57.7433 19.1084 59.868 19.1084C61.9642 19.1084 63.6115 17.3337 63.6115 14.8971Z" fill="#4285F4"/>
<path d="M71.1397 0.945801V21.4349H68.136V0.945801H71.1397Z" fill="#34A853"/>
<path d="M82.8445 17.1732L85.2348 18.7619C84.4634 19.8998 82.6043 21.8605 79.3919 21.8605C75.4081 21.8605 72.4329 18.7903 72.4329 14.869C72.4329 10.7112 75.4334 7.87744 79.0473 7.87744C82.6865 7.87744 84.4665 10.7648 85.0483 12.3252L85.3676 13.1195L75.993 16.9904C76.7107 18.3931 77.8268 19.1086 79.3919 19.1086C80.9601 19.1086 82.0478 18.3395 82.8445 17.1732ZM75.4871 14.6578L81.7537 12.0635C81.4091 11.1904 80.372 10.582 79.1516 10.582C77.5865 10.582 75.4081 11.9595 75.4871 14.6578Z" fill="#EA4335"/>
<path d="M11.1579 13.0529V10.0868H21.1838C21.2818 10.6037 21.3324 11.2152 21.3324 11.8772C21.3324 14.1026 20.7222 16.8545 18.7556 18.8151C16.8427 20.801 14.3987 21.8601 11.161 21.8601C5.16001 21.8601 0.113831 16.9869 0.113831 11.004C0.113831 5.02121 5.16001 0.147949 11.161 0.147949C14.4809 0.147949 16.8459 1.44664 18.6228 3.13936L16.5234 5.23241C15.2492 4.04088 13.5229 3.11414 11.1579 3.11414C6.77567 3.11414 3.34832 6.63512 3.34832 11.004C3.34832 15.3729 6.77567 18.8939 11.1579 18.8939C14.0003 18.8939 15.6191 17.756 16.6562 16.7221C17.4972 15.8836 18.0505 14.6858 18.2687 13.0498L11.1579 13.0529Z" fill="#4285F4"/>
</svg>
