<svg width="36" height="40" viewBox="0 0 36 40" fill="none" xmlns="http://www.w3.org/2000/svg">
<path fill-rule="evenodd" clip-rule="evenodd" d="M21.388 1.99199C22.4572 3.8871 21.8071 6.30126 19.936 7.38418L8.30155 14.1176C7.99402 14.2956 7.8042 14.6271 7.8042 14.9861V25.5563C7.8042 25.9153 7.99402 26.2467 8.30155 26.4247L17.511 31.7548C17.8141 31.9301 18.1859 31.9301 18.489 31.7548L27.6985 26.4247C28.006 26.2467 28.1958 25.9153 28.1958 25.5563V18.9825L19.9175 23.7132C18.0406 24.7858 15.6605 24.1142 14.6015 22.2133C13.5425 20.3123 14.2056 17.9017 16.0825 16.8292L27.9277 10.0602C31.5358 7.99827 36 10.6386 36 14.8346V26.3588C36 29.0581 34.572 31.5504 32.258 32.8896L21.6846 39.009C19.4014 40.3303 16.5986 40.3303 14.3154 39.009L3.74196 32.8896C1.42803 31.5504 0 29.0581 0 26.3588V14.1835C0 11.4843 1.42803 8.99201 3.74196 7.65282L16.064 0.521394C17.9351 -0.561524 20.3188 0.0968852 21.388 1.99199Z" fill="url(#paint0_linear_1_49)"/>
<defs>
<linearGradient id="paint0_linear_1_49" x1="27.0957" y1="6.04878" x2="8.28086" y2="35.2541" gradientUnits="userSpaceOnUse">
<stop stop-color="#FFB45B"/>
<stop offset="1" stop-color="#FF8A00"/>
</linearGradient>
</defs>
</svg>
