<svg width="105" height="15" viewBox="0 0 105 15" fill="none" xmlns="http://www.w3.org/2000/svg">
<path d="M99.105 0.108398C99.105 0.108398 99.7456 0.108398 100.013 0.307844C100.013 0.307844 100.282 0.507289 100.489 1.11658L104.969 14.4196C104.969 14.4196 105.031 14.5874 104.98 14.725C104.98 14.725 104.928 14.8611 104.7 14.8611H102.801C102.801 14.8611 102.574 14.8611 102.44 14.8089C102.44 14.8089 102.305 14.7566 102.223 14.5255L101.315 11.6468H96.0696L95.1615 14.5035C95.1615 14.5035 95.0993 14.6933 94.9858 14.7772C94.9858 14.7772 94.8723 14.8611 94.625 14.8611H92.7248C92.7249 14.8611 92.4978 14.8611 92.4357 14.725C92.4357 14.725 92.3748 14.5874 92.4357 14.4196L96.8954 1.11658C96.8954 1.11658 96.9994 0.801629 97.1021 0.613199C97.1021 0.613199 97.2062 0.423382 97.3603 0.318859C97.3603 0.318859 97.5157 0.212949 97.7224 0.160674C97.7224 0.160674 97.9279 0.108398 98.2171 0.108398H99.105ZM98.713 2.94589H98.6103L97.763 5.86454L96.69 9.45438H100.654L99.5807 5.92641L98.713 2.94589Z" fill="black"/>
<path d="M56.4676 0.148438C56.4676 0.148438 56.7568 0.148438 56.8595 0.222716C56.8595 0.222716 56.9622 0.295607 56.9622 0.589946L56.9622 6.03932H63.3843V0.589946C63.3843 0.589946 63.3843 0.316223 63.4992 0.232344C63.4992 0.232344 63.6127 0.148438 63.86 0.148438H65.4331C65.4331 0.148438 65.7223 0.148438 65.8156 0.222716C65.8156 0.222716 65.9088 0.295607 65.9088 0.589946V14.4197C65.9088 14.4197 65.9088 14.7141 65.8156 14.7883C65.8156 14.7883 65.7223 14.8612 65.4331 14.8612H63.86C63.86 14.8612 63.6127 14.8612 63.4992 14.7773C63.4992 14.7773 63.3843 14.6934 63.3843 14.4197V8.24412H56.9622V14.4197C56.9622 14.4197 56.9622 14.7141 56.8595 14.7883C56.8595 14.7883 56.7568 14.8612 56.4676 14.8612H54.8999C54.8999 14.8612 54.6729 14.8612 54.5499 14.7773C54.5499 14.7773 54.4256 14.6934 54.4256 14.4197L54.4255 0.589946C54.4256 0.589946 54.4256 0.316223 54.5499 0.232344C54.5499 0.232344 54.6729 0.148438 54.8999 0.148438H56.4676Z" fill="black"/>
<path d="M50.1754 0.148438C50.1754 0.148438 50.4025 0.148437 50.4755 0.232344C50.4755 0.232344 50.5471 0.31761 50.5471 0.548686V2.00248C50.5471 2.00248 50.5471 2.21294 50.4755 2.29682C50.4755 2.29682 50.4025 2.38073 50.1754 2.38073H46.2536V14.4197C46.2536 14.4197 46.2536 14.7141 46.1603 14.7883C46.1603 14.7883 46.0671 14.8612 45.7779 14.8612H44.1643C44.1643 14.8612 43.917 14.8612 43.8034 14.7773C43.8034 14.7773 43.6899 14.6934 43.6899 14.4197V2.38073H39.8491C39.8491 2.38073 39.6221 2.38073 39.5599 2.29682C39.5599 2.29682 39.4978 2.21294 39.4978 2.00248L39.4977 0.548686C39.4978 0.548686 39.4978 0.31761 39.5599 0.232344C39.5599 0.232344 39.6221 0.148438 39.8491 0.148438H50.1754Z" fill="black"/>
<path d="M24.0216 0.0609035C28.0538 0.0609035 31.3199 3.38499 31.3199 7.48877C31.3199 11.5898 28.0538 14.9166 24.0216 14.9166H7.9336C7.35835 14.9166 6.89215 14.4422 6.89215 13.8567C6.89215 13.2712 7.35835 12.7968 7.9336 12.7968H11.6823C12.2548 12.7968 12.721 12.3223 12.721 11.7368C12.721 11.1514 12.2548 10.6769 11.6823 10.6769H10.848C10.2728 10.6769 9.80658 10.2024 9.80658 9.61696C9.80658 9.0315 10.2728 8.55703 10.848 8.55703H13.3481C13.9265 8.55539 14.3751 8.07562 14.3895 7.49709C14.3895 6.91163 13.9233 6.43716 13.3481 6.43716H4.59931C4.02406 6.43716 3.55786 5.96268 3.55786 5.37722C3.55786 4.79176 4.02406 4.31729 4.59931 4.31729H11.0553C11.6337 4.31565 12.0823 3.83588 12.0967 3.25735C12.0967 2.67189 11.6305 2.19742 11.0552 2.19742H9.59938C9.02413 2.19742 8.55793 1.72295 8.55793 1.13749C8.55793 0.552025 9.02413 0.0498047 9.59938 0.0498047L24.0216 0.0609035ZM22.8547 2.53593C20.6137 2.53593 18.8007 4.38388 18.8007 6.66191V8.31285C18.8007 10.5937 20.6137 12.4388 22.8547 12.4388C25.093 12.4388 26.9088 10.5937 26.9088 8.31285V6.66191C26.9088 4.38388 25.093 2.53593 22.8547 2.53593ZM24.2397 6.43716C24.7795 6.43716 25.2184 6.88388 25.2184 7.43327V7.56091C25.2184 8.1103 24.7795 8.55703 24.2397 8.55703H21.1971C20.6573 8.55703 20.2184 8.1103 20.2184 7.56091V7.43327C20.2184 6.88388 20.6573 6.43716 21.1971 6.43716H24.2397Z" fill="black"/>
<path d="M4.662 12.7969C5.20454 12.7969 5.64075 13.2408 5.64075 13.793V13.9206C5.64075 14.47 5.20454 14.9167 4.662 14.9167H1.06053C0.520724 14.9167 0.0817871 14.47 0.0817871 13.9206V13.793C0.0817871 13.2408 0.520724 12.7969 1.06053 12.7969H4.662Z" fill="black"/>
<path d="M80.5055 0.134766C80.5055 0.134766 80.7731 0.134766 80.8461 0.251691C80.8461 0.251691 80.9177 0.367229 80.9177 0.618922V1.94481C80.9177 1.94481 80.9177 2.21853 80.8461 2.31343C80.8461 2.31343 80.7731 2.40832 80.5055 2.40832H75.0133C75.0133 2.40832 74.2281 2.40832 73.9078 2.76457C73.9078 2.76457 73.5889 3.12217 73.5889 3.79337V5.99817H79.8231C79.8231 5.99817 80.092 5.99817 80.165 6.10408C80.165 6.10408 80.2366 6.2086 80.2366 6.50158V7.65555C80.2366 7.65555 80.2366 7.90724 80.165 8.02142C80.165 8.02142 80.092 8.13693 79.8231 8.13693H73.5889V11.2082C73.5889 11.2082 73.5889 11.8808 73.9295 12.2274C73.9295 12.2274 74.27 12.5754 75.0133 12.5754H80.6285C80.6285 12.5754 80.9177 12.5754 80.9907 12.6799C80.9907 12.6799 81.0623 12.7845 81.0623 13.0788V14.3786C81.0623 14.3786 81.0623 14.6097 80.9799 14.7348C80.9799 14.7348 80.8975 14.8613 80.6285 14.8613H74.7443C74.7444 14.8613 73.6497 14.8613 72.9469 14.5464C72.9469 14.5464 72.2442 14.2314 71.8199 13.706C71.8199 13.706 71.3955 13.1806 71.2306 12.508C71.2306 12.508 71.0644 11.8368 71.0644 11.101V3.91717C71.0644 3.91717 71.0644 3.18132 71.2604 2.49911C71.2604 2.49911 71.4577 1.81554 71.9023 1.29012C71.9023 1.29012 72.3469 0.766092 73.0497 0.449749C73.0497 0.449749 73.7538 0.134766 74.7444 0.134766H80.5055Z" fill="black"/>
<path d="M87.7691 0.148438C87.7691 0.148438 88.0569 0.148438 88.161 0.222716C88.161 0.222716 88.2637 0.295607 88.2637 0.589946V14.4197C88.2637 14.4197 88.2637 14.7141 88.161 14.7883C88.161 14.7883 88.0569 14.8612 87.7691 14.8612H86.2014C86.2014 14.8612 85.9541 14.8612 85.8406 14.7773C85.8406 14.7773 85.7271 14.6934 85.7271 14.4197V0.589946C85.7271 0.589946 85.7271 0.316223 85.8406 0.232344C85.8406 0.232344 85.9541 0.148438 86.2014 0.148438H87.7691Z" fill="black"/>
<path d="M6.33051 0.0776367C6.87032 0.0776367 7.30653 0.524362 7.30653 1.07375V1.20416C7.30653 1.75355 6.87032 2.1975 6.33051 2.1975H2.30919C1.76938 2.1975 1.33044 1.75355 1.33044 1.20416V1.07375C1.33044 0.524362 1.76938 0.0776367 2.30919 0.0776367H6.33051Z" fill="black"/>
<path d="M7.57915 8.55713C8.11896 8.55713 8.5579 9.00385 8.5579 9.55324V9.68088C8.5579 10.2303 8.11896 10.677 7.57915 10.677H5.37084C4.83103 10.677 4.39209 10.2303 4.39209 9.68088V9.55324C4.39209 9.00385 4.83103 8.55713 5.37084 8.55713H7.57915Z" fill="black"/>
</svg>
