<svg width="95" height="33" viewBox="0 0 95 33" fill="none" xmlns="http://www.w3.org/2000/svg">
<path d="M5.46567 23.5682C5.86713 24.6342 6.42294 25.5458 7.1332 26.3027C7.84347 27.0598 8.68493 27.6391 9.65757 28.0408C10.6303 28.4425 11.6879 28.6433 12.8305 28.6433C13.9422 28.6433 14.9844 28.4347 15.9571 28.0175C16.9299 27.6003 17.779 27.0133 18.5046 26.2564C19.2303 25.4993 19.7939 24.5956 20.1953 23.545C20.5968 22.4944 20.7975 21.3204 20.7975 20.0225V0H25.661V32.4438H20.8438V29.4312C19.763 30.5744 18.4892 31.455 17.0224 32.0731C15.5555 32.691 13.9731 33 12.2747 33C10.5454 33 8.93193 32.6987 7.43422 32.0962C5.93662 31.4937 4.63959 30.6363 3.54344 29.5239C2.44729 28.4115 1.58257 27.0753 0.949584 25.5148C0.316494 23.9544 0 22.2164 0 20.3006V0H4.86353V20.0225C4.86353 21.3204 5.06421 22.5021 5.46567 23.5682ZM34.0444 0V11.8188C35.1252 10.7374 36.3759 9.87999 37.7963 9.24651C39.2167 8.61302 40.7608 8.29633 42.4282 8.29633C44.1575 8.29633 45.7785 8.62071 47.2917 9.26958C48.8048 9.91845 50.1171 10.7991 51.2288 11.9115C52.3406 13.0239 53.2207 14.3371 53.8691 15.8511C54.5176 17.3652 54.8418 18.9719 54.8418 20.6714C54.8418 22.3707 54.5176 23.9698 53.8691 25.4683C53.2207 26.967 52.3406 28.2725 51.2288 29.3847C50.1171 30.4971 48.8048 31.3778 47.2917 32.0266C45.7785 32.6755 44.1574 32.9999 42.4282 32.9999C40.7607 32.9999 39.2091 32.6832 37.7731 32.0497C36.3372 31.4163 35.0788 30.5589 33.9981 29.4774V32.4437H29.3662V0H34.0444ZM34.577 23.8694C34.9939 24.8582 35.573 25.7234 36.3141 26.465C37.0552 27.2065 37.9198 27.7937 38.9079 28.2262C39.8962 28.6588 40.9614 28.8751 42.104 28.8751C43.2158 28.8751 44.2656 28.6588 45.2537 28.2262C46.2418 27.7937 47.0986 27.2066 47.8245 26.465C48.5501 25.7235 49.1291 24.8582 49.5614 23.8694C49.9937 22.8806 50.2099 21.8147 50.2099 20.6714C50.2099 19.5281 49.9937 18.4543 49.5614 17.4501C49.1291 16.4459 48.5501 15.5731 47.8245 14.8315C47.0987 14.09 46.2419 13.5106 45.2537 13.0935C44.2655 12.6764 43.2156 12.4677 42.104 12.4677C40.9924 12.4677 39.9425 12.6763 38.9544 13.0935C37.9662 13.5107 37.1016 14.09 36.3604 14.8315C35.6194 15.5731 35.0326 16.4459 34.6003 17.4501C34.168 18.4543 33.9519 19.5281 33.9519 20.6714C33.9518 21.8147 34.1602 22.8806 34.577 23.8694ZM57.4815 15.8975C58.0991 14.4144 58.9484 13.1089 60.0291 11.9811C61.1097 10.8533 62.3914 9.96501 63.8736 9.31614C65.3559 8.66727 66.9616 8.34289 68.6908 8.34289C70.3892 8.34289 71.9641 8.65189 73.4155 9.26979C74.8668 9.88778 76.1174 10.7453 77.1673 11.8422C78.2172 12.939 79.0356 14.2369 79.6222 15.7354C80.2089 17.234 80.5023 18.864 80.5023 20.6252V22.1548H61.2798C61.4342 23.1126 61.743 24.001 62.2062 24.8197C62.6695 25.6385 63.2483 26.3492 63.9431 26.9517C64.6379 27.5543 65.4254 28.0255 66.3055 28.3653C67.1855 28.7052 68.1196 28.8752 69.1078 28.8752C71.9179 28.8752 74.1876 27.7164 75.9168 25.399L79.2981 27.9018C78.1247 29.4776 76.6734 30.7136 74.9442 31.6097C73.2148 32.5057 71.2694 32.9537 69.1079 32.9537C67.3477 32.9537 65.7034 32.6446 64.1749 32.0267C62.6463 31.4088 61.3185 30.5436 60.1914 29.4312C59.0643 28.3188 58.1765 27.0133 57.5281 25.5148C56.8796 24.0162 56.5553 22.3862 56.5553 20.625C56.5551 18.9566 56.864 17.3807 57.4815 15.8975ZM63.9894 14.0667C62.677 15.1637 61.8047 16.6236 61.3724 18.4467H75.7778C75.3764 16.6236 74.5194 15.1637 73.207 14.0667C71.8946 12.9699 70.3584 12.4214 68.5983 12.4214C66.8381 12.4214 65.3018 12.9699 63.9894 14.0667ZM89.2564 14.5997C88.2683 15.6811 87.7741 17.1488 87.7741 19.0028V32.4439H83.0958V8.80623H87.7277V11.7262C88.3145 10.7683 89.0788 10.0113 90.0206 9.4551C90.9623 8.89884 92.0818 8.62071 93.3788 8.62071H94.9999V12.9775H93.0545C91.5106 12.9776 90.2445 13.5182 89.2564 14.5997Z" fill="#010202"/>
</svg>
