<svg width="124" height="82" viewBox="0 0 124 82" fill="none" xmlns="http://www.w3.org/2000/svg">
<path d="M77.5802 41.6961C76.8842 42.301 76.0224 42.614 75.0333 42.614H67.7932C66.8055 42.614 65.9622 42.3009 65.2689 41.6961C64.5741 41.0898 64.2162 40.2981 64.2162 39.3368V38.7529C64.2162 37.8337 64.5741 37.0617 65.31 36.4357C66.0471 35.7887 66.8678 35.4757 67.7932 35.4757H72.4029V37.6456H67.7932C67.479 37.6456 67.2045 37.7507 66.9314 37.9599C66.6569 38.1887 66.531 38.4399 66.531 38.7528V39.3368C66.531 40.0679 66.9513 40.4231 67.7932 40.4231H75.0333C75.8951 40.4231 76.3167 40.0682 76.3167 39.3368V33.7436C76.3167 33.4502 76.1907 33.2005 75.9176 32.9716C75.6432 32.7416 75.3488 32.6361 75.0333 32.6361H64.427V30.4649H75.0333C75.9799 30.4649 76.8006 30.7792 77.5165 31.4263C78.2536 32.0733 78.6103 32.8453 78.6103 33.7435V39.3366C78.6103 40.2979 78.2735 41.0896 77.5802 41.6959V41.6961ZM92.1298 39.3371C91.5623 41.5293 90.3824 42.6143 88.5528 42.6143H85.4372C83.6076 42.6143 82.429 41.5293 81.8602 39.3371L79.5666 30.4654H82.0286L84.2387 38.9202C84.492 39.921 85.0182 40.4233 85.7753 40.4233H88.216C88.9943 40.4233 89.5418 39.921 89.7951 38.9202L91.9826 30.4655H94.4446L92.1298 39.3371ZM108.594 36.6451C107.857 37.2921 107.036 37.6038 106.111 37.6038H101.481V35.4129H106.111C106.405 35.4129 106.68 35.3088 106.953 35.0997C107.226 34.8697 107.375 34.6197 107.375 34.3278V33.7438C107.375 33.0126 106.953 32.6365 106.111 32.6365H98.8511C98.0078 32.6365 97.5876 33.0126 97.5876 33.7438V39.3159C97.5876 39.629 97.715 39.8801 97.9879 40.0892C98.2612 40.318 98.5355 40.4232 98.851 40.4232H109.479V42.5931H98.851C97.9243 42.5931 97.105 42.2799 96.3678 41.6541C95.632 41.0071 95.2727 40.2351 95.2727 39.3159V33.7438C95.2727 32.7615 95.632 31.9895 96.3267 31.3846C97.0201 30.7796 97.862 30.4653 98.8511 30.4653H106.111C107.1 30.4653 107.942 30.7796 108.637 31.3635C109.33 31.9684 109.689 32.7615 109.689 33.7438V34.3278C109.689 35.2247 109.33 35.9966 108.594 36.645V36.6451ZM34.5713 36.5234C34.5713 37.323 33.9177 37.9713 33.1116 37.9713C32.3055 37.9713 31.6506 37.323 31.6506 36.5234C31.6506 35.7238 32.3055 35.0742 33.1116 35.0742C33.9177 35.0742 34.5713 35.7238 34.5713 36.5234ZM34.5713 31.9001C34.5713 32.6997 33.9177 33.348 33.1116 33.348C32.3055 33.348 31.6506 32.6997 31.6506 31.9001C31.6506 31.0992 32.3055 30.4521 33.1116 30.4521C33.9177 30.4521 34.5713 31.0992 34.5713 31.9001ZM39.4254 41.1463C39.4254 41.9459 38.7718 42.5955 37.9644 42.5955C37.1596 42.5955 36.506 41.9458 36.506 41.1463C36.506 40.3467 37.1596 39.6984 37.9644 39.6984C38.7718 39.6984 39.4254 40.3467 39.4254 41.1463Z" fill="#1D2329"/>
<path d="M39.4255 36.5235C39.4255 37.3231 38.7718 37.9714 37.9644 37.9714C37.1597 37.9714 36.506 37.323 36.506 36.5235C36.506 35.7239 37.1597 35.0742 37.9644 35.0742C38.7718 35.0742 39.4255 35.7239 39.4255 36.5235Z" fill="#3875E1"/>
<path d="M51.7173 39.3161L51.6656 39.5263C51.0796 41.5582 49.9249 42.5642 48.1656 42.5642H46.5613C44.737 42.5642 43.5651 41.4832 42.9989 39.3014L40.7133 30.4653H43.166L45.3668 38.8846C45.6187 39.884 46.1424 40.3824 46.8967 40.3824H47.8301C48.6057 40.3824 49.1506 39.8893 49.4025 38.8911C49.4025 38.8911 49.9739 37.142 51.7173 37.121C51.7173 37.121 53.4289 36.9566 54.0163 38.8201L54.04 38.8831" fill="#1D2329"/>
<path d="M54.0404 38.8829C54.275 39.8495 54.8624 40.3821 55.6167 40.3821H56.5501C57.3257 40.3821 57.8693 39.8837 58.1225 38.8842L60.3021 30.4662H62.7534L60.4479 39.3011C59.8818 41.4841 58.7085 42.5651 56.8855 42.5651H55.2813C53.4583 42.5651 52.2757 41.4762 51.7096 39.2932L54.0404 38.8829ZM26.8294 33.7415C26.8294 33.4481 26.7047 33.1971 26.4343 32.9682C26.1625 32.7367 25.892 32.6316 25.5791 32.6316H16.5783V40.4393H25.5791C26.413 40.4393 26.8293 40.0845 26.8293 39.3504L26.8294 33.7415ZM28.1008 41.7162C27.4127 42.3239 26.5576 42.6368 25.5791 42.6368H14.3073V30.4551H25.5791C26.4966 30.4551 27.308 30.7693 28.0371 31.4177C28.7663 32.0674 29.1203 32.842 29.1203 33.7415V39.3504C29.1203 40.3144 28.7875 41.1087 28.1008 41.7162ZM14.4213 45.8721H17.9929V46.4165H16.5041V50.1146H15.8862V46.4166H14.4213L14.4213 45.8721ZM18.4722 45.8721H19.0277V47.679C19.2611 47.3961 19.5514 47.2556 19.8975 47.2556C20.0857 47.2556 20.2541 47.3014 20.4039 47.395C20.5523 47.4882 20.6638 47.6171 20.7367 47.7829C20.8096 47.9473 20.8454 48.1919 20.8454 48.5168V50.1146H20.2898V48.38C20.2898 48.175 20.2381 48.0106 20.1374 47.8855C20.0353 47.7606 19.9014 47.6976 19.7357 47.6976C19.6124 47.6976 19.497 47.7274 19.3883 47.7923C19.2796 47.8553 19.1589 47.9593 19.0277 48.1054V50.1149H18.4722L18.4722 45.8721ZM22.0281 48.4281H23.4454C23.4323 48.207 23.3645 48.0362 23.2465 47.9165C23.1285 47.7969 22.9694 47.7365 22.7692 47.7365C22.569 47.7365 22.4047 47.7969 22.2773 47.9165C22.15 48.0362 22.0665 48.2073 22.0281 48.4281H22.0281ZM23.9942 48.7621H22.0122C22.0269 49.0305 22.1169 49.2434 22.284 49.4026C22.4497 49.5602 22.6658 49.6408 22.9296 49.6408C23.2969 49.6408 23.6363 49.5263 23.9465 49.2989V49.8381C23.7755 49.9511 23.6058 50.0316 23.4374 50.0801C23.2691 50.1285 23.0702 50.1524 22.8448 50.1524C22.5332 50.1524 22.2827 50.0894 22.0904 49.9615C21.8982 49.8325 21.7444 49.6618 21.6291 49.4447C21.5137 49.2288 21.4567 48.9791 21.4567 48.6951C21.4567 48.269 21.5773 47.9218 21.82 47.6548C22.0639 47.3879 22.3781 47.255 22.7666 47.255C23.1404 47.255 23.4374 47.3851 23.6601 47.6456C23.8829 47.9062 23.9942 48.2545 23.9942 48.6924V48.7621ZM28.5222 46.3848C28.0423 46.3848 27.6459 46.5388 27.3317 46.8464C27.0188 47.154 26.8623 47.5421 26.8623 48.0103C26.8623 48.4653 27.0201 48.8441 27.3356 49.1479C27.6499 49.4502 28.0463 49.6016 28.5222 49.6016C28.9916 49.6016 29.388 49.4465 29.7088 49.136C30.031 48.827 30.1914 48.4456 30.1914 47.9919C30.1914 47.5276 30.0336 47.1436 29.7181 46.8399C29.4026 46.536 29.0035 46.3848 28.5222 46.3848ZM30.7243 50.3775L30.1105 50.9759C29.9183 50.9684 29.718 50.9326 29.5099 50.8745C29.3017 50.8167 29.0896 50.7365 28.8749 50.6351C28.6601 50.5337 28.3737 50.3589 28.0158 50.1144C27.4974 50.0212 27.0691 49.7762 26.7324 49.3792C26.3956 48.9821 26.2286 48.5244 26.2286 48.0063C26.2286 47.3724 26.4447 46.8477 26.8782 46.4321C27.3117 46.0178 27.8606 45.81 28.5248 45.81C29.1851 45.81 29.7326 46.0166 30.1702 46.4281C30.6077 46.8397 30.8251 47.3579 30.8251 47.9812C30.8251 48.506 30.6607 48.9663 30.3292 49.3634C29.9991 49.7606 29.5709 50.0105 29.0472 50.1144L29.209 50.1747C29.7114 50.3667 30.0747 50.4625 30.2961 50.4625C30.4181 50.4625 30.5613 50.4364 30.7243 50.3772V50.3775ZM33.3276 50.1139V49.7561C33.2082 49.8836 33.073 49.9835 32.9192 50.0547C32.7667 50.1244 32.6143 50.1598 32.4618 50.1598C32.2829 50.1598 32.1185 50.1166 31.9673 50.0282C31.8175 49.9402 31.7035 49.8206 31.6252 49.6692C31.5483 49.5194 31.5099 49.2681 31.5099 48.9183V47.3165H32.0667V48.9118C32.0667 49.2063 32.1092 49.4115 32.1953 49.5272C32.2802 49.6443 32.43 49.7021 32.6448 49.7021C32.9126 49.7021 33.1406 49.5731 33.3276 49.3154V47.3165H33.883V50.1137L33.3276 50.1139ZM35.9306 49.5563V48.7239L35.5581 48.8674C35.3685 48.9424 35.2346 49.0173 35.155 49.0937C35.0769 49.1701 35.0384 49.2648 35.0384 49.3793C35.0384 49.4948 35.0756 49.5895 35.1497 49.6633C35.224 49.7356 35.3194 49.7725 35.4388 49.7725C35.6151 49.7725 35.7795 49.7002 35.9306 49.5567L35.9306 49.5563ZM36.4795 48.4257V49.6145C36.4795 49.7092 36.5115 49.7566 36.5776 49.7566C36.6453 49.7566 36.75 49.7081 36.8945 49.6093V49.9485C36.7686 50.0276 36.6664 50.0813 36.5909 50.1103C36.514 50.1402 36.4344 50.1536 36.3509 50.1536C36.1136 50.1536 35.9731 50.0615 35.9306 49.8788C35.6933 50.0615 35.4401 50.1536 35.171 50.1536C34.9734 50.1536 34.8103 50.0891 34.6791 49.9601C34.5479 49.8311 34.4816 49.6693 34.4816 49.4748C34.4816 49.2985 34.5452 49.1408 34.6725 49.0014C34.8011 48.8635 34.9814 48.7528 35.2174 48.6715L35.9306 48.4281V48.2782C35.9306 47.9375 35.7609 47.7679 35.4229 47.7679C35.1193 47.7679 34.8236 47.923 34.5359 48.2335V47.6325C34.752 47.3813 35.0636 47.2551 35.4693 47.2551C35.7729 47.2551 36.0168 47.3341 36.2011 47.4918C36.2621 47.5432 36.3165 47.61 36.3655 47.6942C36.4145 47.7785 36.4464 47.8627 36.4583 47.9466C36.4715 48.0308 36.4794 48.19 36.4794 48.4253L36.4795 48.4257ZM37.9293 47.3171V47.659C38.1785 47.3895 38.4609 47.2553 38.7778 47.2553C38.9528 47.2553 39.1171 47.3 39.2683 47.3906C39.4194 47.4812 39.5334 47.6049 39.613 47.7626C39.6912 47.9192 39.731 48.169 39.731 48.5109V50.114H39.1742V48.5135C39.1742 48.2254 39.1304 48.0204 39.0429 47.8981C38.9541 47.7743 38.8069 47.7128 38.6014 47.7128C38.3376 47.7128 38.1135 47.8429 37.9292 48.1021V50.1142H37.3578V47.3169L37.9293 47.3171ZM40.0985 47.7594L41.1485 46.735V47.3175H42.0408V47.8146H41.1485V49.1837C41.1485 49.5031 41.2811 49.6637 41.5489 49.6637C41.7491 49.6637 41.9599 49.5992 42.1826 49.4691V49.9819C41.9679 50.1016 41.7345 50.1609 41.4813 50.1609C41.2268 50.1609 41.0146 50.0874 40.8463 49.9387C40.7948 49.8955 40.7501 49.845 40.7137 49.7888C40.6791 49.7322 40.65 49.6599 40.6275 49.5693C40.6038 49.4798 40.5918 49.3076 40.5918 49.0551V47.8149H40.0986L40.0985 47.7594ZM44.3963 50.1139V49.7561C44.277 49.8836 44.1418 49.9835 43.988 50.0547C43.8355 50.1244 43.6831 50.1598 43.5306 50.1598C43.3516 50.1598 43.1872 50.1166 43.036 50.0282C42.8849 49.9402 42.7709 49.8206 42.694 49.6692C42.6171 49.5194 42.5786 49.2681 42.5786 48.9183V47.3165H43.1355V48.9118C43.1355 49.2063 43.1779 49.4115 43.2641 49.5272C43.349 49.6443 43.4987 49.7021 43.7135 49.7021C43.9813 49.7021 44.2094 49.5731 44.3963 49.3154V47.3165H44.9518V50.1137L44.3963 50.1139ZM48.0281 48.0842V50.1134H47.4646V48.5497C47.4646 48.2381 47.4221 48.0211 47.3387 47.8975C47.2551 47.7752 47.1093 47.7133 46.9011 47.7133C46.7858 47.7133 46.6784 47.7394 46.5816 47.795C46.4849 47.8501 46.3748 47.9463 46.2502 48.0842V50.1135H45.6947V47.3176H46.2502V47.6859C46.5339 47.3992 46.8123 47.2545 47.0841 47.2545C47.4407 47.2545 47.7178 47.4267 47.914 47.7687C48.211 47.4268 48.5213 47.2545 48.8447 47.2545C49.1179 47.2545 49.3419 47.3544 49.5183 47.5531C49.6946 47.7518 49.7821 48.0555 49.7821 48.4631V50.1136H49.2266V48.4513C49.2266 48.2187 49.1788 48.0397 49.0834 47.9147C48.9879 47.791 48.85 47.7295 48.6711 47.7295C48.4417 47.7295 48.2269 47.848 48.0281 48.0844V48.0842ZM56.065 49.1274V49.7954C55.6155 50.0389 55.0972 50.1611 54.5085 50.1611C54.0312 50.1611 53.6255 50.065 53.2927 49.8745C52.96 49.6836 52.6962 49.4221 52.5026 49.088C52.309 48.7525 52.211 48.391 52.211 48.0017C52.211 47.3837 52.4337 46.8642 52.8778 46.4421C53.3219 46.0212 53.8695 45.8095 54.5205 45.8095C54.9699 45.8095 55.4684 45.9265 56.0186 46.1592V46.8128C55.5174 46.5276 55.0296 46.3854 54.5509 46.3854C54.0617 46.3854 53.6547 46.5378 53.3312 46.8456C53.0077 47.1532 52.846 47.5387 52.846 48.0003C52.846 48.4672 53.0051 48.8512 53.3233 49.151C53.6428 49.4507 54.0498 49.6008 54.5456 49.6008C55.064 49.6008 55.5705 49.4431 56.065 49.1273L56.065 49.1274ZM58.0195 47.8066C57.753 47.8066 57.5356 47.8935 57.3645 48.0683C57.1935 48.242 57.1086 48.4628 57.1086 48.7324C57.1086 48.9994 57.1961 49.2177 57.3712 49.386C57.5448 49.5557 57.7702 49.6399 58.0433 49.6399C58.3164 49.6399 58.5391 49.5545 58.7128 49.3834C58.8865 49.2123 58.9727 48.9942 58.9727 48.7259C58.9727 48.4616 58.8825 48.2419 58.7022 48.0683C58.5206 47.8935 58.2938 47.8066 58.0194 47.8066L58.0195 47.8066ZM58.0487 47.3095C58.4757 47.3095 58.831 47.4463 59.1134 47.7212C59.3957 47.9959 59.5363 48.3406 59.5363 48.7562C59.5363 49.1599 59.3931 49.4939 59.1067 49.7609C58.8203 50.0278 58.4597 50.1607 58.0235 50.1607C57.6033 50.1607 57.2519 50.0253 56.9696 49.7543C56.6858 49.4848 56.5453 49.1467 56.5453 48.7417C56.5453 48.3314 56.6872 47.9908 56.9735 47.7185C57.2586 47.4464 57.6178 47.3096 58.0487 47.3096L58.0487 47.3095ZM62.4628 48.0842V50.1134H61.8994V48.5497C61.8994 48.2381 61.8569 48.0211 61.7735 47.8975C61.6899 47.7752 61.5441 47.7133 61.336 47.7133C61.2206 47.7133 61.1132 47.7394 61.0164 47.795C60.9197 47.8501 60.8096 47.9463 60.685 48.0842V50.1135H60.1295V47.3176H60.685V47.6859C60.9687 47.3992 61.2471 47.2545 61.5189 47.2545C61.8756 47.2545 62.1526 47.4267 62.3489 47.7687C62.6458 47.4268 62.9561 47.2545 63.2796 47.2545C63.5527 47.2545 63.7768 47.3544 63.9531 47.5531C64.1294 47.7518 64.2169 48.0555 64.2169 48.4631V50.1136H63.6614V48.4513C63.6614 48.2187 63.6137 48.0397 63.5182 47.9147C63.4227 47.791 63.2849 47.7295 63.1059 47.7295C62.8765 47.7295 62.6618 47.848 62.4629 48.0844L62.4628 48.0842ZM65.9444 47.8377H65.5506V49.5525C65.7216 49.642 65.9006 49.6867 66.0876 49.6867C66.3488 49.6867 66.5609 49.5973 66.728 49.4172C66.8937 49.2372 66.9758 49.0042 66.9758 48.7215C66.9758 48.5389 66.9374 48.3782 66.8578 48.2389C66.7797 48.0995 66.6735 47.9969 66.5383 47.9339C66.4031 47.8694 66.2042 47.8378 65.9444 47.8378V47.8377ZM64.9792 51.5437V47.317H65.955C66.4548 47.317 66.8433 47.4407 67.1217 47.6879C67.4001 47.9351 67.5406 48.2797 67.5406 48.7242C67.5406 49.1437 67.4093 49.487 67.1469 49.7566C66.8857 50.0261 66.5516 50.1603 66.1459 50.1603C65.9669 50.1603 65.768 50.1208 65.5506 50.0421V51.544L64.9792 51.5437ZM69.9382 50.1139V49.7561C69.8189 49.8836 69.6837 49.9835 69.5298 50.0547C69.3774 50.1244 69.2249 50.1598 69.0725 50.1598C68.8935 50.1598 68.7291 50.1166 68.5779 50.0282C68.4281 49.9402 68.3141 49.8206 68.2372 49.6692C68.1603 49.5194 68.1206 49.2681 68.1206 48.9183V47.3165H68.6774V48.9118C68.6774 49.2063 68.7198 49.4115 68.806 49.5272C68.8908 49.6443 69.0406 49.7021 69.2555 49.7021C69.5232 49.7021 69.7513 49.5731 69.9382 49.3154V47.3165H70.4937V50.1137L69.9382 50.1139ZM70.8913 47.7594L71.9413 46.735V47.3175H72.8336V47.8146H71.9413V49.1837C71.9413 49.5031 72.0739 49.6637 72.3417 49.6637C72.5419 49.6637 72.7527 49.5992 72.9755 49.4691V49.9819C72.7607 50.1016 72.5273 50.1609 72.2754 50.1609C72.0195 50.1609 71.8074 50.0874 71.6391 49.9387C71.5876 49.8955 71.543 49.845 71.5065 49.7888C71.4719 49.7322 71.4428 49.6599 71.4203 49.5693C71.3966 49.4798 71.3846 49.3076 71.3846 49.0551V47.8149H70.8914L70.8913 47.7594ZM73.4199 47.3175H73.9753V50.1147H73.4199V47.3175ZM73.6983 46.1445C73.7897 46.1445 73.868 46.1743 73.9329 46.2377C73.9992 46.3007 74.031 46.3771 74.031 46.4692C74.031 46.5571 73.9991 46.6347 73.9329 46.6992C73.8679 46.7637 73.7897 46.7965 73.6983 46.7965C73.6121 46.7965 73.5365 46.7629 73.4715 46.6977C73.4052 46.6321 73.3734 46.5556 73.3734 46.4688C73.3734 46.3834 73.4053 46.3085 73.4715 46.2425C73.5365 46.1769 73.612 46.1441 73.6983 46.1441V46.1445ZM75.3297 47.3171V47.659C75.579 47.3895 75.8614 47.2553 76.1783 47.2553C76.3533 47.2553 76.5177 47.3 76.6688 47.3906C76.82 47.4812 76.9339 47.6049 77.0135 47.7626C77.0917 47.9192 77.1315 48.169 77.1315 48.5109V50.114H76.5747V48.5135C76.5747 48.2254 76.531 48.0204 76.4434 47.8981C76.3559 47.7743 76.2074 47.7128 76.0019 47.7128C75.7381 47.7128 75.514 47.8429 75.3297 48.1021V50.1142H74.7584V47.3169L75.3297 47.3171ZM78.7781 47.7987C78.627 47.7987 78.4984 47.8501 78.3911 47.9512C78.285 48.0526 78.2319 48.1748 78.2319 48.3169C78.2319 48.4615 78.2836 48.58 78.3884 48.6747C78.4931 48.7694 78.6244 48.8168 78.7848 48.8168C78.9412 48.8168 79.0725 48.7683 79.1786 48.6721C79.2833 48.5748 79.3363 48.4552 79.3363 48.3105C79.3363 48.1644 79.2833 48.0421 79.1773 47.9448C79.0712 47.8475 78.9373 47.7987 78.7782 47.7987H78.7781ZM78.6443 50.2487C78.456 50.2487 78.3036 50.2882 78.1842 50.3669C78.0649 50.4459 78.0053 50.5469 78.0053 50.6707C78.0053 50.9574 78.2665 51.1007 78.7875 51.1007C79.0341 51.1007 79.225 51.0634 79.3602 50.993C79.4955 50.9206 79.5631 50.8193 79.5631 50.6877C79.5631 50.5587 79.4782 50.4536 79.3071 50.3708C79.1361 50.2892 78.9147 50.2485 78.6443 50.2485V50.2487ZM77.7308 48.2851C77.7308 47.9865 77.8409 47.7512 78.0596 47.5776C78.2797 47.4038 78.5793 47.317 78.9585 47.317H80.1199V47.7523H79.5511C79.6612 47.8626 79.7381 47.964 79.7818 48.0561C79.8243 48.1467 79.8454 48.2522 79.8454 48.3692C79.8454 48.5154 79.803 48.6585 79.7195 48.7992C79.6359 48.9398 79.5286 49.0479 79.396 49.1228C79.2647 49.1978 79.0486 49.2581 78.7477 49.3029C78.5342 49.3327 78.4281 49.4054 78.4281 49.5187C78.4281 49.5832 78.4666 49.6369 78.5462 49.6779C78.6244 49.72 78.7662 49.7633 78.9731 49.8069C79.3178 49.8833 79.5405 49.9411 79.6399 49.9843C79.7394 50.0265 79.8282 50.0868 79.909 50.1659C80.0443 50.3001 80.112 50.4682 80.112 50.6709C80.112 50.9367 79.9925 51.1482 79.7553 51.3061C79.518 51.4638 79.1999 51.5428 78.8021 51.5428C78.4004 51.5428 78.0795 51.4638 77.8396 51.3046C77.6009 51.1454 77.4803 50.9326 77.4803 50.6641C77.4803 50.2853 77.715 50.0421 78.1843 49.9316C77.9974 49.812 77.9032 49.6934 77.9032 49.5767C77.9032 49.4873 77.943 49.4056 78.0252 49.3333C78.1048 49.2599 78.2148 49.2069 78.3513 49.1715C77.9377 48.9888 77.7309 48.6941 77.7309 48.2851L77.7308 48.2851ZM86.0598 49.1274V49.7954C85.6103 50.0389 85.0919 50.1611 84.5033 50.1611C84.026 50.1611 83.6203 50.065 83.2875 49.8745C82.9546 49.6836 82.6909 49.4221 82.4974 49.088C82.3023 48.7525 82.2069 48.391 82.2069 48.0017C82.2069 47.3837 82.4282 46.8642 82.8725 46.4421C83.3166 46.0212 83.8641 45.8095 84.5151 45.8095C84.9645 45.8095 85.463 45.9265 86.0119 46.1592V46.8128C85.5121 46.5276 85.0242 46.3854 84.5456 46.3854C84.0563 46.3854 83.6493 46.5378 83.3258 46.8456C83.0023 47.1532 82.8407 47.5387 82.8407 48.0003C82.8407 48.4672 82.9996 48.8512 83.3179 49.151C83.6374 49.4507 84.0444 49.6008 84.5403 49.6008C85.0586 49.6008 85.5651 49.4431 86.0596 49.1273L86.0598 49.1274ZM88.014 47.8066C87.7476 47.8066 87.5301 47.8935 87.3591 48.0683C87.1881 48.242 87.1031 48.4628 87.1031 48.7324C87.1031 48.9994 87.1907 49.2177 87.3658 49.386C87.5395 49.5557 87.765 49.6399 88.038 49.6399C88.3112 49.6399 88.5339 49.5545 88.7075 49.3834C88.8812 49.2123 88.9672 48.9942 88.9672 48.7259C88.9672 48.4616 88.877 48.2419 88.6966 48.0683C88.5151 47.8935 88.2883 47.8066 88.0139 47.8066L88.014 47.8066ZM88.0439 47.3095C88.4708 47.3095 88.8261 47.4463 89.1085 47.7212C89.3908 47.9959 89.5315 48.3406 89.5315 48.7562C89.5315 49.1599 89.3883 49.4939 89.1019 49.7609C88.8155 50.0278 88.4549 50.1607 88.0187 50.1607C87.5985 50.1607 87.2471 50.0253 86.9647 49.7543C86.681 49.4848 86.5405 49.1467 86.5405 48.7417C86.5405 48.3314 86.6825 47.9908 86.9687 47.7185C87.2536 47.4464 87.6131 47.3096 88.0439 47.3096V47.3095ZM92.4575 48.0842V50.1134H91.8941V48.5497C91.8941 48.2381 91.8516 48.0211 91.7682 47.8975C91.6847 47.7752 91.5389 47.7133 91.3306 47.7133C91.2153 47.7133 91.1078 47.7394 91.0112 47.795C90.9142 47.8501 90.8045 47.9463 90.6797 48.0842V50.1135H90.1229V47.3176H90.6797V47.6859C90.9635 47.3992 91.2418 47.2545 91.5137 47.2545C91.8703 47.2545 92.1474 47.4267 92.3436 47.7687C92.6405 47.4268 92.9508 47.2545 93.2756 47.2545C93.5473 47.2545 93.7714 47.3544 93.9478 47.5531C94.124 47.7518 94.2116 48.0555 94.2116 48.4631V50.1136H93.6561V48.4513C93.6561 48.2187 93.6084 48.0397 93.513 47.9147C93.4175 47.791 93.2796 47.7295 93.1006 47.7295C92.8714 47.7295 92.6565 47.848 92.4576 48.0844L92.4575 48.0842ZM95.939 47.8377H95.5453V49.5525C95.7163 49.642 95.8952 49.6867 96.0822 49.6867C96.3434 49.6867 96.5555 49.5973 96.7226 49.4172C96.8883 49.2372 96.9706 49.0042 96.9706 48.7215C96.9706 48.5389 96.9323 48.3782 96.8526 48.2389C96.7745 48.0995 96.6685 47.9969 96.5332 47.9339C96.3979 47.8694 96.1991 47.8378 95.9392 47.8378L95.939 47.8377ZM94.9741 51.5437V47.317H95.9498C96.4497 47.317 96.8381 47.4407 97.1178 47.6879C97.3948 47.9351 97.5341 48.2797 97.5341 48.7242C97.5341 49.1437 97.4041 49.487 97.1417 49.7566C96.8805 50.0261 96.5464 50.1603 96.1407 50.1603C95.9618 50.1603 95.7629 50.1208 95.5455 50.0421V51.544L94.9741 51.5437ZM99.396 49.5563V48.7239L99.0236 48.8674C98.8327 48.9424 98.6989 49.0173 98.6206 49.0937C98.5424 49.1701 98.5026 49.2648 98.5026 49.3793C98.5026 49.4948 98.5402 49.5895 98.6153 49.6633C98.6897 49.7356 98.7852 49.7725 98.9043 49.7725C99.0806 49.7725 99.2452 49.7002 99.3962 49.5567L99.396 49.5563ZM99.9437 48.4257V49.6145C99.9437 49.7092 99.9776 49.7566 100.043 49.7566C100.111 49.7566 100.216 49.7081 100.36 49.6093V49.9485C100.233 50.0276 100.132 50.0813 100.056 50.1103C99.9795 50.1402 99.9002 50.1536 99.8163 50.1536C99.5792 50.1536 99.4385 50.0615 99.3961 49.8788C99.1574 50.0615 98.9055 50.1536 98.6364 50.1536C98.4387 50.1536 98.2756 50.0891 98.1445 49.9601C98.0119 49.8311 97.9469 49.6693 97.9469 49.4748C97.9469 49.2985 98.0104 49.1408 98.1378 49.0014C98.2663 48.8635 98.4467 48.7528 98.6827 48.6715L99.396 48.4281V48.2782C99.396 47.9375 99.2261 47.7679 98.8882 47.7679C98.5845 47.7679 98.2889 47.923 98.0013 48.2335V47.6325C98.2174 47.3813 98.5289 47.2551 98.9346 47.2551C99.2382 47.2551 99.4821 47.3341 99.6664 47.4918C99.7273 47.5432 99.7818 47.61 99.8307 47.6942C99.8795 47.7785 99.9103 47.8627 99.9235 47.9466C99.9385 48.0308 99.9423 48.19 99.9423 48.4253L99.9437 48.4257ZM101.394 47.3171V47.659C101.644 47.3895 101.926 47.2553 102.243 47.2553C102.418 47.2553 102.582 47.3 102.733 47.3906C102.885 47.4812 102.998 47.6049 103.078 47.7626C103.156 47.9192 103.196 48.169 103.196 48.5109V50.114H102.639V48.5135C102.639 48.2254 102.596 48.0204 102.508 47.8981C102.421 47.7743 102.272 47.7128 102.067 47.7128C101.803 47.7128 101.579 47.8429 101.394 48.1021V50.1142H100.823V47.3169L101.394 47.3171ZM105.574 47.3171H106.196L104.21 51.5439H103.588L104.538 49.5239L103.454 47.3171H104.089L104.843 48.8913L105.574 47.3171ZM108.369 48.9797H108.126V47.395H108.517L108.92 48.6614L109.31 47.395H109.693V48.9797H109.449V47.6501L109.041 48.9797H108.801L108.369 47.6277L108.369 48.9797ZM107.422 48.9797H107.156V47.6199H106.637V47.3951H107.946V47.6199H107.422L107.422 48.9797Z" fill="#1D2329"/>
</svg>
